<?xml version="1.0" encoding="UTF-8" standalone="no"?>
<!-- Generator: Adobe Illustrator 15.0.0, SVG Export Plug-In . SVG Version: 6.00 Build 0)  -->

<svg
   xmlns:dc="http://purl.org/dc/elements/1.1/"
   xmlns:cc="http://creativecommons.org/ns#"
   xmlns:rdf="http://www.w3.org/1999/02/22-rdf-syntax-ns#"
   xmlns:svg="http://www.w3.org/2000/svg"
   xmlns="http://www.w3.org/2000/svg"
   xmlns:sodipodi="http://sodipodi.sourceforge.net/DTD/sodipodi-0.dtd"
   xmlns:inkscape="http://www.inkscape.org/namespaces/inkscape"
   version="1.1"
   id="Livello_1"
   x="0px"
   y="0px"
   width="874.89996"
   height="874.90002"
   viewBox="0 0 874.89996 874.90003"
   enable-background="new 0 0 1000 841.891"
   xml:space="preserve"
   inkscape:version="0.48.4 r9939"
   sodipodi:docname="-_13_-_ITALY_-_Siringa_droga_-_drugs_-_syringes_-_dealing_IT_WIKIPEDIA.svg"><metadata
     id="metadata17"><rdf:RDF><cc:Work
         rdf:about=""><dc:format>image/svg+xml</dc:format><dc:type
           rdf:resource="http://purl.org/dc/dcmitype/StillImage" /><dc:title></dc:title></cc:Work></rdf:RDF></metadata><defs
     id="defs15" /><sodipodi:namedview
     pagecolor="#ffffff"
     bordercolor="#666666"
     borderopacity="1"
     objecttolerance="10"
     gridtolerance="10"
     guidetolerance="10"
     inkscape:pageopacity="0"
     inkscape:pageshadow="2"
     inkscape:window-width="1839"
     inkscape:window-height="1015"
     id="namedview13"
     showgrid="false"
     fit-margin-top="0"
     fit-margin-left="0"
     fit-margin-right="0"
     fit-margin-bottom="0"
     inkscape:zoom="0.79286844"
     inkscape:cx="863.50445"
     inkscape:cy="419.17986"
     inkscape:window-x="0"
     inkscape:window-y="0"
     inkscape:window-maximized="0"
     inkscape:current-layer="Livello_1" /><path
     sodipodi:type="arc"
     style="fill:#232323;fill-opacity:1"
     id="path2994"
     sodipodi:cx="491.88489"
     sodipodi:cy="420.00513"
     sodipodi:rx="459.09256"
     sodipodi:ry="405.48972"
     d="m 950.97745,420.00513 a 459.09256,405.48972 0 1 1 -918.185122,0 459.09256,405.48972 0 1 1 918.185122,0 z"
     transform="matrix(0.95285796,0,0,1.078819,-31.246436,-15.659502)" /><polyline
     points="290.446,642.336 264.082,618.763 338.185,539.47   301.289,501.179 570.021,220.038 517.248,169.839 532.016,154.612 607.108,225.471 678,152.379 650.574,124.795 663.388,112.597   739.485,184.457 812.5,259.445 800.5,272.445 772.5,245.445 700.5,317.445 772.5,391.445 757.5,406.445 706.5,354.445   429.5,627.445 390.649,591.138 312.5,666.445 288.526,640.445 "
     id="polyline5"
     style="fill:#ffffff;stroke:#ffffff;stroke-width:9"
     transform="translate(-46.666006,-11.134508)" /><polyline
     points="294.261,646.664 191.5,731.445 283.659,636.267 "
     id="polyline7"
     style="fill:#ffffff;stroke:#ffffff;stroke-width:7"
     transform="translate(-46.666006,-11.134508)" /><g
     id="g9"
     transform="translate(-46.666006,-11.134508)"><polygon
       points="289.5,616.445 316.5,640.445 388.5,567.445 393.146,571.496 424.338,602.688 520.86,511.63 417.052,407.822 325.993,504.344 361.5,538.445 361.5,538.445 "
       id="polygon11"
       style="fill:#232323;stroke:#ffffff;stroke-width:7" /></g></svg>